<svg xmlns="http://www.w3.org/2000/svg" width="800" height="300"><path fill="#3BA288" d="M587.366 232.811c0-99.593-84.334-180.328-188.365-180.328-104.032 0-188.366 80.735-188.366 180.328h376.731z"/><path fill="#129D73" d="M343.17 300l434.993-.005c-28.396-80.271-115.028-138.673-217.497-138.673S371.562 219.727 343.17 300"/><path fill="#4DB899" d="M13 300s60.656-166.309 251.366-166.309S496.606 300 496.606 300H13z"/><path fill="#6DA0AB" d="M375.5 46.875h45.75v38.593H375.5z"/><g fill="#8DBEC6"><path d="M420.17 33.75h33.25v51.718h-33.25z"/><path d="M416.92 24.875h8.875v12h-8.875zM431.795 24.875h9.375v12h-9.375zM447.045 24.875h9.375v12h-9.375z"/></g><ellipse fill="#439F8A" cx="133" cy="244.025" rx="12" ry="5.5"/><path fill="#F6D546" d="M118.5 230.025l13.38-56 15.62 56h-29z"/><path fill="#AF946C" d="M132 206.525h2v37h-2z"/><path fill="#AF946C" d="M132.5 215.865l5.73-5.84 1.27 1.3-6.36 6.479-.43.221-.21-2.16zM132.5 223.865l5.73-5.84 1.27 1.3-6.36 6.479-.43.221-.21-2.16zM133.5 219.865l-5.73-5.84-1.27 1.3 6.36 6.479.43.221.21-2.16z"/><path fill="#CA8A65" d="M210.752 116.644h31.805v31.806h-31.805z"/><path fill="#C6F7FB" d="M214.9 122.175h8.297v8.297H214.9zM231.494 122.175h8.297v8.297h-8.297zM214.9 136.004h8.297v8.297H214.9z"/><path fill="#70595E" d="M231.494 136.004h8.297v12.445h-8.297zM226.654 100.574l21.352 17.162h-42.703l21.351-17.162z"/><linearGradient id="a" gradientUnits="userSpaceOnUse" x1="292.3325" y1="75.6992" x2="292.3325" y2="48.0303" gradientTransform="matrix(1 0 0 -1 -56 155)"><stop offset="0" stop-color="#e0ebe8"/><stop offset="1" stop-color="#fff"/></linearGradient><path fill="url(#a)" d="M232.891 92.167c.124-7.619 1.783-13.358 3.679-12.833 1.908.539 3.347 7.148 3.208 14.77-.123 7.619-1.783 13.356-3.678 12.833-1.812-.514-3.223-6.542-3.223-13.802"/><path fill="#70595E" d="M231.494 101.432h8.988v12.446h-8.988z"/><ellipse fill="#378C79" cx="521.25" cy="277.78" rx="12" ry="4"/><path fill="#8FD182" d="M503.75 267.29l16.38-62.02 19.12 62.02h-35.5z"/><path fill="#AF946C" d="M520.25 244.78h2v33h-2z"/><path fill="#AF946C" d="M520.75 251.53l5.73-5.76 1.27 1.279-6.36 6.41-.43.211-.21-2.14zM520.75 259.431l5.73-5.76 1.27 1.279-6.36 6.41-.43.21-.21-2.139zM521.75 255.48l-5.73-5.761-1.27 1.281 6.36 6.409.43.21.21-2.139z"/><ellipse fill="#378C79" cx="287" cy="277.734" rx="12" ry="5.5"/><path fill="#8FD182" d="M271.5 263.734l14.77-69 17.23 69h-32z"/><path fill="#AF946C" d="M286 240.234h2v37h-2z"/><path fill="#AF946C" d="M286.5 249.574l5.73-5.84 1.27 1.3-6.36 6.48-.43.22-.21-2.16zM286.5 257.574l5.73-5.84 1.27 1.3-6.36 6.48-.43.22-.21-2.16zM287.5 253.574l-5.73-5.84-1.27 1.3 6.36 6.48.43.22.21-2.16z"/><g><ellipse fill="#378C79" cx="171.25" cy="165.279" rx="10.25" ry="4"/><path fill="#217D68" d="M156.5 153.578l13.38-50.849 15.62 50.849h-29z"/><path fill="#AF946C" d="M170 135.279h2v30h-2z"/><path fill="#AF946C" d="M170.5 140.719l5.73-5.3 1.27 1.18-6.36 5.89-.43.19-.21-1.96zM170.5 147.979l5.73-5.3 1.27 1.18-6.36 5.89-.43.19-.21-1.96zM171.5 144.349l-5.73-5.3-1.27 1.18 6.36 5.89.43.19.21-1.96z"/></g><g><path fill="#F1F2F2" d="M69.333 91.333H74V222h-4.667z"/><path fill="#FFF" d="M28.333 96.333h44.333v29.333H28.333z"/><path fill="#BE1E2D" d="M47.833 96.333h5.333v29.333h-5.333z"/><path fill="#BE1E2D" d="M28.333 108.5h44.333v5.375H28.333z"/></g><g><ellipse fill="#378C79" cx="607.415" cy="216.129" rx="10.25" ry="4"/><path fill="#217D68" d="M592.665 204.428l13.379-50.85 15.621 50.85h-29z"/><path fill="#AF946C" d="M606.165 186.129h2v30h-2z"/><path fill="#AF946C" d="M606.665 191.568l5.73-5.3 1.27 1.18-6.361 5.89-.43.191-.209-1.961zM606.665 198.828l5.73-5.299 1.27 1.18-6.361 5.889-.43.191-.209-1.961zM607.665 195.199l-5.73-5.301-1.27 1.18 6.359 5.891.43.189.211-1.959z"/></g><ellipse fill="#378C79" cx="714.272" cy="238.775" rx="12" ry="5.5"/><path fill="#F4C916" d="M699.772 224.775l13.38-56 15.62 56h-29z"/><path fill="#AF946C" d="M713.272 201.275h2v37h-2z"/><path fill="#AF946C" d="M713.772 210.615l5.73-5.84 1.27 1.3-6.36 6.479-.43.221-.21-2.16zM713.772 218.615l5.73-5.84 1.27 1.3-6.36 6.479-.43.221-.21-2.16zM714.772 214.615l-5.729-5.84-1.271 1.3 6.36 6.479.43.221.21-2.16z"/><g><ellipse fill="#378C79" cx="387.75" cy="198.555" rx="10.25" ry="4"/><path fill="#217D68" d="M373 186.854l13.38-50.85 15.62 50.85h-29z"/><path fill="#AF946C" d="M386.5 168.555h2v30h-2z"/><path fill="#AF946C" d="M387 173.994l5.73-5.3 1.27 1.18-6.36 5.89-.43.191-.21-1.961zM387 181.254l5.73-5.299 1.27 1.18-6.36 5.889-.43.191-.21-1.961zM388 177.625l-5.73-5.301-1.27 1.18 6.36 5.891.43.189.21-1.959z"/></g><path fill="#6DA0AB" d="M382.375 40.875h7.375v44.593h-7.375zM407.375 40.875h7.25v44.593h-7.25z"/><path fill="#6DA0AB" d="M388.875 46.875H411v18.593h-22.125z"/><path fill="#6DA0AB" d="M394.625 40.875h7.75V50h-7.75z"/><path fill="#70595E" d="M389.75 65.875s8.125-8.875 17.625 0v19.593H389.75V65.875z"/><path fill="#C6F7FB" d="M396.5 49.468h4.501v8H396.5zM431.795 57.75h8.955v-9s-1.83-4.375-4.478-4.375S431.795 49 431.795 49v8.75z"/><g fill="#8DBEC6"><path d="M343.58 33.75h33.25v51.718h-33.25z"/><path d="M340.33 24.875h8.875v12h-8.875zM355.205 24.875h9.375v12h-9.375zM370.455 24.875h9.375v12h-9.375z"/></g><path fill="#C6F7FB" d="M355.205 57.75h8.955v-9s-1.83-4.375-4.478-4.375S355.205 49 355.205 49v8.75z"/><g><path fill="#CA8A65" d="M542.848 137.24h31.805v31.806h-31.805z"/><path fill="#C6F7FB" d="M546.996 142.771h8.297v8.297h-8.297zM563.59 142.771h8.297v8.297h-8.297zM546.996 156.601h8.297v8.297h-8.297z"/><path fill="#70595E" d="M563.59 156.601h8.297v12.445h-8.297zM558.75 121.171l21.352 17.162h-42.703l21.351-17.162z"/><linearGradient id="b" gradientUnits="userSpaceOnUse" x1="624.4258" y1="55.1025" x2="624.4258" y2="27.4336" gradientTransform="matrix(1 0 0 -1 -56 155)"><stop offset="0" stop-color="#e0ebe8"/><stop offset="1" stop-color="#fff"/></linearGradient><path fill="url(#b)" d="M564.986 112.764c.124-7.619 1.783-13.358 3.679-12.833 1.908.539 3.347 7.148 3.208 14.77-.123 7.619-1.783 13.356-3.678 12.833-1.812-.514-3.223-6.542-3.223-13.802"/><path fill="#70595E" d="M563.59 122.028h8.988v12.446h-8.988z"/></g></svg>